# xmcd
#
# Track frame offsets: 
#        183
#        22723
#        39260
#        56263
#        68920
#        85220
#        106083
#        126138
#        142315
#        146735
#
# Disc length: 2141 seconds
#
# Revision: 2
# Processed by: cddbd v1.5.2PL0 Copyright (c) Steve Scherf et al.
# Submitted via: ExactAudioCopy v1.0b3
#
DISCID=82085b0a
DTITLE=Alexis Korner - ME
DYEAR=1979
DGENRE=Blues
TTITLE0=Honky Tonk Woman
TTITLE1=Louise
TTITLE2=Hammer And Nails
TTITLE3=Santa F  Blues
TTITLE4=How Long Blues
TTITLE5=Roberta
TTITLE6=Precious Lord
TTITLE7=Honour The Young Man
TTITLE8=And Again
TTITLE9=East St. Louis Blues
EXTD=
EXTT0=
EXTT1=
EXTT2=
EXTT3=
EXTT4=
EXTT5=
EXTT6=
EXTT7=
EXTT8=
EXTT9=
PLAYORDER=
